<svg xmlns="http://www.w3.org/2000/svg" viewBox="0 0 180 180">
  <rect width="180" height="180" fill="#0F172A"/>
  <defs>
    <linearGradient id="sunGradient" x1="0%" y1="0%" x2="100%" y2="100%">
      <stop offset="0%" style="stop-color:#F59E0B;stop-opacity:1" />
      <stop offset="100%" style="stop-color:#D97706;stop-opacity:1" />
    </linearGradient>
  </defs>
  <!-- Sun circle -->
  <circle cx="90" cy="80" r="35" fill="url(#sunGradient)"/>
  <!-- Sun rays -->
  <g fill="#F59E0B">
    <rect x="86" y="20" width="8" height="20" rx="4"/>
    <rect x="86" y="120" width="8" height="20" rx="4"/>
    <rect x="20" y="76" width="20" height="8" rx="4"/>
    <rect x="140" y="76" width="20" height="8" rx="4"/>
    <rect x="38" y="38" width="8" height="20" rx="4" transform="rotate(45 42 48)"/>
    <rect x="134" y="102" width="8" height="20" rx="4" transform="rotate(45 138 112)"/>
    <rect x="38" y="102" width="8" height="20" rx="4" transform="rotate(-45 42 112)"/>
    <rect x="134" y="38" width="8" height="20" rx="4" transform="rotate(-45 138 48)"/>
  </g>
  <!-- Water drop -->
  <path d="M90 115 Q70 145 90 165 Q110 145 90 115" fill="#0EA5E9"/>
</svg>
