<svg xmlns="http://www.w3.org/2000/svg" viewBox="0 0 32 32">
  <defs>
    <linearGradient id="sunGradient" x1="0%" y1="0%" x2="100%" y2="100%">
      <stop offset="0%" style="stop-color:#F59E0B;stop-opacity:1" />
      <stop offset="100%" style="stop-color:#D97706;stop-opacity:1" />
    </linearGradient>
  </defs>
  <!-- Sun circle -->
  <circle cx="16" cy="16" r="8" fill="url(#sunGradient)"/>
  <!-- Sun rays -->
  <g fill="#F59E0B">
    <rect x="15" y="2" width="2" height="5" rx="1"/>
    <rect x="15" y="25" width="2" height="5" rx="1"/>
    <rect x="2" y="15" width="5" height="2" rx="1"/>
    <rect x="25" y="15" width="5" height="2" rx="1"/>
    <rect x="5.5" y="5.5" width="2" height="5" rx="1" transform="rotate(45 6.5 8)"/>
    <rect x="24.5" y="21.5" width="2" height="5" rx="1" transform="rotate(45 25.5 24)"/>
    <rect x="5.5" y="21.5" width="2" height="5" rx="1" transform="rotate(-45 6.5 24)"/>
    <rect x="24.5" y="5.5" width="2" height="5" rx="1" transform="rotate(-45 25.5 8)"/>
  </g>
  <!-- Water drop -->
  <path d="M16 20 Q13 24 16 27 Q19 24 16 20" fill="#0EA5E9"/>
</svg>
